<svg id="Layer_1" data-name="Layer 1" xmlns="http://www.w3.org/2000/svg" viewBox="0 0 588.24 519.57"><defs><style>.cls-1{fill:#fff4c6;}.cls-2{fill:#999;}.cls-3{fill:#fff;}.cls-4{fill:none;stroke:aqua;stroke-miterlimit:10;}.cls-5{fill:#f9ad1b;}.cls-6{fill:#cb6e29;}.cls-7{fill:#743718;}</style></defs><path class="cls-1" d="M152.82,384.78H444.4a178.07,178.07,0,0,1,.54,41.16H152.28a125.92,125.92,0,0,1,.54-41.16Z" transform="translate(-6.11 -39.72)"/><path class="cls-2" d="M164.75,469.33H432.47a138.9,138.9,0,0,1-31.64,44.3H196.39a145.45,145.45,0,0,1-31.64-44.3Z" transform="translate(-6.11 -39.72)"/><path class="cls-3" d="M444.94,425.94H152.28a128.46,128.46,0,0,0,12.47,43.39H432.47a121.59,121.59,0,0,0,9.39-25.23A119.71,119.71,0,0,0,444.94,425.94Z" transform="translate(-6.11 -39.72)"/><path class="cls-4" d="M298.61,554.72" transform="translate(-6.11 -39.72)"/><path class="cls-5" d="M168.21,338.29H429a155.56,155.56,0,0,1,15.39,46.49H152.82a145.81,145.81,0,0,1,15.39-46.49Z" transform="translate(-6.11 -39.72)"/><path class="cls-6" d="M206.25,292.29H391a141.63,141.63,0,0,1,38,46H168.21c4.5-8.26,11.32-19.61,20.15-29.69C194.7,301.36,200.53,297,206.25,292.29Z" transform="translate(-6.11 -39.72)"/><path d="M196.39,513.63H400.83a145,145,0,0,1-41.63,28.18,133.26,133.26,0,0,1-118.76,1.06,143.79,143.79,0,0,1-21.83-11.58A145.26,145.26,0,0,1,196.39,513.63Z" transform="translate(-6.11 -39.72)"/><path class="cls-7" d="M206.25,292.29H391a145.41,145.41,0,0,0-92.36-32.5c-10.87-.39-27.84,1.33-47.25,7.81C229.86,274.78,214.82,284.89,206.25,292.29Z" transform="translate(-6.11 -39.72)"/><path class="cls-4" d="M234.63,469.33" transform="translate(-6.11 -39.72)"/><path d="M594.35,559.29H367.43l-7.55-17.79a147.5,147.5,0,1,0-119.44,1.37l-6.53,16.42H6.11l280.5-452.57-36-57,16-10,32,48.25,31.28-48.25,14.72,10-35,57Z" transform="translate(-6.11 -39.72)"/><path d="M289.61,397.29c15.83-6.16,30.28-3.66,37-1,19.05,7.55,18,26,31,31,16.3,6.27,22,5,31,10a13.53,13.53,0,0,1,5.28,5.13,14.35,14.35,0,0,1,1.72,6.87c.13,3.62.51,14.23-5,21-6.37,7.83-13,15-47,11-7.86-.92-21.37,1.78-31,9-20,15-37.77,18.23-50.4,14.24s-26.38-13.51-27.6-25.24c-1.15-11.09-2-15,24-36C277.87,427.74,248.61,413.29,289.61,397.29Z" transform="translate(-6.11 -39.72)"/><ellipse cx="365.5" cy="357.57" rx="18" ry="26"/><ellipse cx="325" cy="324.57" rx="18.5" ry="29"/><path d="M303.61,357.29c2.25,15-1.09,28.24-11,29-13,1-24-14-25-28-1.08-15.15,2-21,9-25C285.24,328.36,300.61,337.29,303.61,357.29Z" transform="translate(-6.11 -39.72)"/><path d="M262.61,409.29c8.54-4.41,9.07-23.8,1-36-5.75-8.68-18-17-26-13-8.38,4.21-8.81,20.39-4,31C239.27,403.77,254.42,413.52,262.61,409.29Z" transform="translate(-6.11 -39.72)"/><path d="M244.61,446.29c8.09-6.76,5.09-24.43-4-34-7.25-7.63-21.15-13-29-7-8.26,6.35-6.22,22.6,1,32C220.41,447.46,236.74,452.87,244.61,446.29Z" transform="translate(-6.11 -39.72)"/><path d="M218.61,396.29a47,47,0,0,1-6-31,40,40,0,0,0-5,8c-6.07,12.93-3.44,26.69-2,32a15.47,15.47,0,0,1,8-8A13.94,13.94,0,0,1,218.61,396.29Z" transform="translate(-6.11 -39.72)"/><path d="M230.61,360.29a14.76,14.76,0,0,1,7-6,14.41,14.41,0,0,1,6-1,57.44,57.44,0,0,1-4-10,58.86,58.86,0,0,1-2-23,36.83,36.83,0,0,0-6,9C225.32,342.68,229.16,356,230.61,360.29Z" transform="translate(-6.11 -39.72)"/><path d="M269.61,331.29a20.55,20.55,0,0,1,15-5,69,69,0,0,0-18-31,72.21,72.21,0,0,0-1,14A73,73,0,0,0,269.61,331.29Z" transform="translate(-6.11 -39.72)"/><path d="M323.61,333.29a27.54,27.54,0,0,1,15,0,44.13,44.13,0,0,0-28-31,81.16,81.16,0,0,1,13,31Z" transform="translate(-6.11 -39.72)"/><path d="M365.61,368.29a15.38,15.38,0,0,1,9-1,14.84,14.84,0,0,1,5,2,39.79,39.79,0,0,0-24-31,50,50,0,0,1,10,30Z" transform="translate(-6.11 -39.72)"/></svg>