<?xml version="1.0" encoding="utf-8"?>
<!-- Generator: Adobe Illustrator 26.0.0, SVG Export Plug-In . SVG Version: 6.00 Build 0)  -->
<svg version="1.1" id="Capa_1" xmlns="http://www.w3.org/2000/svg" xmlns:xlink="http://www.w3.org/1999/xlink" x="0px" y="0px"
	 viewBox="0 0 512 512" style="enable-background:new 0 0 512 512;" xml:space="preserve">
<style type="text/css">
	.st0{fill:#FFF4C6;}
	.st1{fill:#999999;}
	.st2{fill:#FFFFFF;}
	.st3{fill:none;stroke:#00FFFF;stroke-miterlimit:10;}
	.st4{fill:#F9AD1B;}
	.st5{fill:#CB6E29;}
	.st6{fill:#743718;}
</style>
<path class="st0" d="M110.1,261.3h219.7c0.6,4.6,1,9.7,1.1,15.3c0.1,5.8-0.2,11-0.7,15.7c-73.5,0-147,0-220.5,0
	c-0.7-4.4-1.2-9.7-1.1-15.7C108.7,270.8,109.3,265.6,110.1,261.3z"/>
<path class="st1" d="M119.1,325h201.7c-1.9,4.1-4.2,8.7-7.2,13.4c-5.5,8.6-11.5,15.1-16.6,20c-51.3,0-102.7,0-154,0
	c-4.3-4.1-9.2-9.4-14-16.2C124.6,336,121.4,330.1,119.1,325z"/>
<path class="st2" d="M330.2,292.3H109.7c0.5,5,1.5,10.9,3.4,17.5c1.8,6,3.9,11.1,5.9,15.2c67.2,0,134.5,0,201.7,0
	c2.5-5,5.2-11.4,7.1-19C329.1,301,329.8,296.4,330.2,292.3z"/>
<path class="st3" d="M219.9,389.3"/>
<path class="st4" d="M121.7,226.3h196.5c2,3.9,4.1,8.4,5.9,13.4c2.9,8,4.7,15.3,5.7,21.6c-73.2,0-146.5,0-219.7,0
	c0.9-6,2.5-13.1,5.3-20.9C117.3,235,119.5,230.3,121.7,226.3z"/>
<path class="st5" d="M150.3,191.6h139.2c4.2,3.3,8.8,7.5,13.5,12.7c7,7.9,11.9,15.7,15.2,22c-65.5,0-131,0-196.5,0
	c3.4-6.2,8.5-14.8,15.2-22.4C141.6,198.4,146,195.1,150.3,191.6z"/>
<path d="M142.9,358.4h154c-3.8,3.7-8.6,7.8-14.5,11.8c-6.1,4.2-11.9,7.2-16.9,9.4c-8.2,4.1-24.9,11.3-47.2,10.9
	c-19.5-0.3-34.3-6.2-42.3-10.1c-4.9-2.1-10.5-4.9-16.4-8.7C152.7,367.2,147.2,362.5,142.9,358.4z"/>
<path class="st6" d="M150.3,191.6h139.2c-6.8-5.5-18.1-13.3-33.6-18.6c-14.6-5-27.4-5.9-36-5.9c-8.2-0.3-21,1-35.6,5.9
	C168.1,178.4,156.8,186,150.3,191.6z"/>
<path class="st3" d="M171.7,325"/>
<path d="M442.8,392.8h-171l-5.7-13.4c38.3-17.5,65-56.2,65-101.1c0-61.4-49.8-111.1-111.1-111.1S108.9,217,108.9,278.3
	c0,45.8,27.7,85.2,67.3,102.2l-4.9,12.4H-0.5l211.4-341L183.7,8.8l12.1-7.5l24.1,36.4l23.6-36.4l11.1,7.5l-26.4,42.9L442.8,392.8z"
	/>
<path d="M213.1,270.7c11.9-4.6,22.8-2.8,27.9-0.8c14.4,5.7,13.6,19.6,23.4,23.4c12.3,4.7,16.6,3.8,23.4,7.5c1.6,0.9,3,2.1,4,3.9
	c0.7,1.2,1.2,2.8,1.3,5.2c0.1,2.7,0.4,10.7-3.8,15.8c-4.8,5.9-9.8,11.3-35.4,8.3c-5.9-0.7-16.1,1.3-23.4,6.8
	c-15.1,11.3-28.5,13.7-38,10.7c-9.6-3-19.9-10.2-20.8-19c-0.9-8.4-1.5-11.3,18.1-27.1C204.3,293.7,182.2,282.8,213.1,270.7z"/>
<ellipse cx="274.9" cy="270.7" rx="13.6" ry="19.6"/>
<ellipse cx="244.4" cy="245.9" rx="13.9" ry="21.9"/>
<path d="M223.7,240.6c1.7,11.3-0.8,21.3-8.3,21.9c-9.8,0.8-18.1-10.5-18.8-21.1c-0.8-11.4,1.5-15.8,6.8-18.8
	C209.8,218.8,221.4,225.5,223.7,240.6z"/>
<path d="M192.8,279.8c6.4-3.3,6.8-17.9,0.8-27.1c-4.3-6.5-13.6-12.8-19.6-9.8c-6.3,3.2-6.6,15.4-3,23.4
	C175.2,275.6,186.6,283,192.8,279.8z"/>
<path d="M179.2,307.6c6.1-5.1,3.8-18.4-3-25.6c-5.5-5.8-15.9-9.8-21.9-5.3c-6.2,4.8-4.7,17,0.8,24.1
	C161,308.5,173.3,312.6,179.2,307.6z"/>
<path d="M159.6,270c-1.3-2.2-2.8-5.2-3.8-9c-1.6-6-1.2-11.1-0.8-14.3c-1.3,1.6-2.6,3.6-3.8,6c-4.6,9.7-2.6,20.1-1.5,24.1
	c0.5-1,2.2-4.5,6-6C157.3,270.1,158.6,270,159.6,270z"/>
<path d="M168.7,242.8c0.6-0.9,2.2-3.3,5.3-4.5c1.8-0.7,3.5-0.8,4.5-0.8c-1.1-2.1-2.2-4.6-3-7.5c-2.1-7-2-13.1-1.5-17.3
	c-1.6,1.7-3.2,4-4.5,6.8C164.7,229.6,167.6,239.6,168.7,242.8z"/>
<path d="M198.1,221c1-0.9,2.7-2.2,5.3-3c1.2-0.4,3.4-0.9,6-0.8c-1.1-4-3.1-9.4-6.8-15.1c-2.3-3.4-4.6-6.2-6.8-8.3
	c-0.5,3-0.9,6.5-0.8,10.5C195.2,211.3,196.7,216.9,198.1,221z"/>
<path d="M238.8,222.5c1.2-0.3,2.7-0.7,4.5-0.8c2.8-0.2,5.2,0.3,6.8,0.8c-0.8-3.1-2.9-9.8-9-15.8c-4.5-4.4-9.2-6.5-12.1-7.5
	c2.2,3.2,4.7,7.5,6.8,12.8C237.2,215.8,238.2,219.4,238.8,222.5z"/>
<path d="M270.4,248.9c1.1-0.5,3.6-1.4,6.8-0.8c1.7,0.3,2.9,1,3.8,1.5c-0.4-2.8-1.7-9.1-6.8-15.1c-4.1-4.9-8.8-7.2-11.3-8.3
	c1.9,2.5,4.4,6.6,6,12.1C270.1,242.5,270.4,246.2,270.4,248.9z"/>
</svg>
